# xmcd
#
# Track frame offsets:
# 150
# 16098
# 28491
# 44106
# 62788
# 77596
# 92250
# 109620
# 124218
# 141119
# 155824
# 175092
#
# Disc length: 2604 seconds
#
# Revision: 0
# Processed by: cddbd v1.5.1PL0 Copyright (c) Steve Scherf et al.
# Submitted via: Audion 3.0.2 (http://www.panic.com/audion/)
#
DISCID=9d0a2a0c
DTITLE=Different - Bravo CD
DYEAR=1900
DGENRE=
TTITLE0=Alexander - Stay with me
TTITLE1=Baracuda - I leave the world today
TTITLE2=Buddy - Ab in den Süden
TTITLE3=Christina Aguilera - Fighter
TTITLE4=Die Gerd Show - Zuhause
TTITLE5=No Angels - Someday
TTITLE6=One-T - The Magic Key
TTITLE7=Sahrah Connor - Bounce
TTITLE8=Stacie Orrico - Stuck
TTITLE9=TATU - How soon is now?
TTITLE10=The Rasmus - In the Shadows
TTITLE11=Yvonne Catterfield - Für Dich
EXTD=
EXTT0=
EXTT1=
EXTT2=
EXTT3=
EXTT4=
EXTT5=
EXTT6=
EXTT7=
EXTT8=
EXTT9=
EXTT10=
EXTT11=
PLAYORDER=
